<svg xmlns="http://www.w3.org/2000/svg" viewBox="0 0 1200 500"><defs><linearGradient id="b" x2="1" y2="1"><stop stop-color="#9ee7ff"/><stop offset="1" stop-color="#fff2a8"/></linearGradient></defs><rect width="1200" height="500" fill="url(#b)"/><circle cx="1080" cy="85" r="55" fill="#ffd54f"/><g transform="translate(600 285)"><ellipse rx="175" ry="170" fill="#182433"/><ellipse cy="35" rx="112" ry="125" fill="#fff"/><circle cx="-48" cy="-55" r="17" fill="#fff"/><circle cx="48" cy="-55" r="17" fill="#fff"/><circle cx="-48" cy="-55" r="7"/><circle cx="48" cy="-55" r="7"/><path d="M-35 -20 L0 5 35 -20 0 -45Z" fill="#ff9f1c"/><path d="M-145 25 q-95 30 -110 115 q80 5 135 -65z" fill="#182433"/><path d="M145 25 q95 30 110 115 q-80 5 -135 -65z" fill="#182433"/><path d="M-100 132 q-55 35 -90 55 h105zM100 132 q55 35 90 55H85z" fill="#ff9f1c"/><g transform="rotate(-8)"><rect x="-105" y="-115" width="210" height="30" rx="14" fill="#ffd22e"/><rect x="-82" y="-145" width="164" height="55" rx="22" fill="#ffd22e"/></g></g><text x="45" y="72" font-family="Arial" font-size="50" font-weight="800" fill="#123b67">FREITAG IM ANMARSCH</text><text x="45" y="120" font-family="Arial" font-size="28" fill="#123b67">Der Pinguin hat schon den Wochenendhut auf.</text><g fill="#fff" opacity=".7"><circle cx="130" cy="210" r="10"/><circle cx="190" cy="260" r="7"/><circle cx="1010" cy="230" r="12"/><circle cx="950" cy="310" r="8"/></g></svg>