<svg xmlns="http://www.w3.org/2000/svg" viewBox="0 0 1200 500" role="img" aria-labelledby="t d"><title id="t">Waschbär beim Picknick</title><desc id="d">Ein fröhlicher Waschbär sitzt mit Sonnenhut, Limonade und einem riesigen Sandwich auf einer Picknickdecke.</desc><defs><linearGradient id="bg" x1="0" y1="0" x2="1" y2="1"><stop stop-color="#c9f2ff"/><stop offset="1" stop-color="#fff0a8"/></linearGradient></defs><rect width="1200" height="500" fill="url(#bg)"/><circle cx="1050" cy="85" r="58" fill="#ffd44f"/><path d="M0 330 Q180 285 360 330 T720 330 T1080 330 T1440 330 V500 H0Z" fill="#83cf73"/><rect x="650" y="350" width="410" height="95" rx="25" fill="#fff" stroke="#e85c5c" stroke-width="18" stroke-dasharray="34 24"/><g transform="translate(470 250)"><ellipse cx="0" cy="90" rx="130" ry="105" fill="#888f99"/><circle cx="0" cy="0" r="105" fill="#9ba2aa"/><path d="M-75 -25 q75 -62 150 0 q-20 65 -75 65 q-55 0 -75 -65z" fill="#343b43"/><ellipse cx="-38" cy="-5" rx="20" ry="28" fill="#fff"/><ellipse cx="38" cy="-5" rx="20" ry="28" fill="#fff"/><circle cx="-35" cy="0" r="9"/><circle cx="35" cy="0" r="9"/><ellipse cx="0" cy="38" rx="19" ry="14" fill="#222"/><path d="M-35 58 q35 35 70 0" fill="none" stroke="#222" stroke-width="9" stroke-linecap="round"/><path d="M-85 -70 l-45 -70 82 38z" fill="#7d848c"/><path d="M85 -70 l45 -70 -82 38z" fill="#7d848c"/><path d="M-105 -90 q105 -70 210 0" fill="#f2b949"/><rect x="-96" y="-102" width="192" height="25" rx="12" fill="#e6a934"/></g><g transform="translate(820 285)"><rect x="-90" y="-15" width="180" height="34" rx="14" fill="#f0c36a"/><rect x="-82" y="-48" width="164" height="34" rx="14" fill="#69b85d"/><rect x="-76" y="-80" width="152" height="32" rx="14" fill="#ef6f61"/><rect x="-88" y="-112" width="176" height="34" rx="14" fill="#f0c36a"/></g><g transform="translate(1020 285)"><rect x="-30" y="-70" width="60" height="105" rx="18" fill="#fff" stroke="#4aa3d8" stroke-width="8"/><path d="M-18 -15 h36" stroke="#ffd24d" stroke-width="35"/><path d="M0 -70 l25 -48" stroke="#e85c5c" stroke-width="8"/></g><text x="55" y="78" font-family="Arial,sans-serif" font-size="52" font-weight="800" fill="#12345b">HEUTE WIRD GUT</text><text x="55" y="128" font-family="Arial,sans-serif" font-size="28" fill="#12345b">Der Waschbär hat sogar ein Sandwich in Verwaltungsgröße dabei.</text></svg>