<svg xmlns="http://www.w3.org/2000/svg" viewBox="0 0 1200 500" role="img" aria-labelledby="t d"><title id="t">Lustiger Pool-Hund</title><desc id="d">Ein fröhlicher Hund mit gelber Sonnenbrille sitzt in einem gelben Enten-Schwimmring im Pool.</desc><defs><linearGradient id="sky" x1="0" y1="0" x2="0" y2="1"><stop stop-color="#c8f1ff"/><stop offset="1" stop-color="#51c7ec"/></linearGradient><linearGradient id="water" x1="0" y1="0" x2="1" y2="1"><stop stop-color="#1fc5e9"/><stop offset="1" stop-color="#087ebc"/></linearGradient></defs><rect width="1200" height="500" fill="url(#sky)"/><circle cx="1050" cy="90" r="55" fill="#ffd54f"/><path d="M0 250 Q180 210 360 250 T720 250 T1080 250 T1440 250 V500 H0Z" fill="url(#water)"/><g opacity=".35" fill="none" stroke="#fff" stroke-width="8"><path d="M30 330 Q120 300 210 330 T390 330"/><path d="M750 380 Q860 350 970 380 T1190 380"/></g><g transform="translate(600 275)"><ellipse cx="0" cy="115" rx="240" ry="92" fill="#ffd22e" stroke="#e2a900" stroke-width="12"/><circle cx="155" cy="105" r="62" fill="#ffd22e" stroke="#e2a900" stroke-width="10"/><path d="M205 105 l70 25 -70 28z" fill="#ff8b1f" stroke="#d85f00" stroke-width="8"/><circle cx="172" cy="85" r="9" fill="#132238"/><ellipse cx="0" cy="10" rx="125" ry="120" fill="#c98945"/><path d="M-92 -55 q-65 -25 -72 55 q42 18 76 0z" fill="#9b5f2e"/><path d="M92 -55 q65 -25 72 55 q-42 18 -76 0z" fill="#9b5f2e"/><ellipse cx="0" cy="28" rx="75" ry="62" fill="#e6b06e"/><ellipse cx="0" cy="15" rx="24" ry="18" fill="#2a1a12"/><path d="M-48 48 q48 52 96 0" fill="none" stroke="#351f16" stroke-width="12" stroke-linecap="round"/><path d="M-35 56 q35 55 70 0 q-8 55 -35 58 q-27 -3 -35 -58z" fill="#ef7185"/><g stroke="#f2b705" stroke-width="18" fill="#1c2733"><rect x="-105" y="-32" width="86" height="54" rx="20"/><rect x="19" y="-32" width="86" height="54" rx="20"/><path d="M-19 -7 H19"/></g><circle cx="-62" cy="-5" r="10" fill="#fff" opacity=".65"/><circle cx="62" cy="-5" r="10" fill="#fff" opacity=".65"/></g><g font-family="Arial, sans-serif" fill="#0b2d68"><text x="50" y="70" font-size="52" font-weight="800">GUTE LAUNE IM ANFLUG</text><text x="50" y="120" font-size="28">Pool-Hund meldet: Optimismus ist wasserdicht.</text></g></svg>